<svg width="70" height="70" viewBox="0 0 70 70" fill="none" xmlns="http://www.w3.org/2000/svg">
<path d="M32.083 11.6667H11.6663C10.1192 11.6667 8.63551 12.2813 7.54155 13.3753C6.44759 14.4693 5.83301 15.953 5.83301 17.5001V58.3334C5.83301 59.8805 6.44759 61.3642 7.54155 62.4582C8.63551 63.5522 10.1192 64.1667 11.6663 64.1667H52.4997C54.0468 64.1667 55.5305 63.5522 56.6245 62.4582C57.7184 61.3642 58.333 59.8805 58.333 58.3334V37.9167" stroke="#4A4A4A" stroke-width="5" stroke-linecap="round" stroke-linejoin="round"/>
<path d="M53.958 7.29168C55.1183 6.13135 56.6921 5.47949 58.333 5.47949C59.974 5.47949 61.5477 6.13135 62.708 7.29168C63.8683 8.452 64.5202 10.0257 64.5202 11.6667C64.5202 13.3076 63.8683 14.8814 62.708 16.0417L34.9997 43.75L23.333 46.6667L26.2497 35L53.958 7.29168Z" stroke="#4A4A4A" stroke-width="5" stroke-linecap="round" stroke-linejoin="round"/>
</svg>
