<svg width="299" height="82" viewBox="0 0 299 82" fill="none"
     xmlns="http://www.w3.org/2000/svg">
    <path
        d="M56 38.5643C56 28.8638 63.9949 21 73.8571 21H88.1429C98.0051 21 106 28.8638 106 38.5643V52.5767C106 62.0831 98.165 69.7896 88.5 69.7896L84.0873 77.2531C82.7102 79.5823 79.2898 79.5823 77.9127 77.2531L73.5 69.7896C63.835 69.7896 56 62.0831 56 52.5767V38.5643Z"
        fill="#FF7F48"/>
    <g filter="url(#filter0_d)">
        <path
            d="M42.2778 38.544C41.8501 35.6429 40.6587 33.467 38.7034 32.0165C36.8093 30.5055 34.3958 29.75 31.4629 29.75C30.1187 29.75 28.6828 29.9918 27.1553 30.4753C25.6277 30.8983 24.2224 31.7445 22.9393 33.0137C21.6561 34.2225 20.5869 35.9451 19.7315 38.1813C18.876 40.3571 18.4483 43.228 18.4483 46.794C18.4483 48.728 18.6622 50.6621 19.0899 52.5962C19.5787 54.5302 20.3119 56.2527 21.2895 57.7637C22.3283 59.2747 23.6419 60.5137 25.2306 61.4808C26.8192 62.3874 28.7439 62.8407 31.0047 62.8407C34.0597 62.8407 36.5649 61.9038 38.5201 60.0302C40.5365 58.1566 41.789 55.5275 42.2778 52.1429H52.7262C51.7486 58.2472 49.3962 62.9313 45.669 66.195C42.0029 69.3983 37.1148 71 31.0047 71C27.2775 71 23.978 70.3956 21.1062 69.1868C18.2956 67.9176 15.9126 66.2253 13.9574 64.1099C12.0021 61.9341 10.5052 59.3654 9.46643 56.4038C8.48881 53.4423 8 50.239 8 46.794C8 43.2885 8.48881 39.9945 9.46643 36.9121C10.4441 33.8297 11.9105 31.1703 13.8657 28.9341C15.821 26.6374 18.2345 24.8544 21.1062 23.5852C24.0391 22.2555 27.4608 21.5907 31.3713 21.5907C34.1208 21.5907 36.7176 21.9533 39.1617 22.6786C41.6668 23.3434 43.8665 24.3709 45.7606 25.761C47.7159 27.1511 49.3045 28.9038 50.5265 31.0192C51.7486 33.1346 52.4818 35.6429 52.7262 38.544H42.2778Z"
            fill="black"/>
        <path
            d="M105.393 22.8599L116.757 22.8599L128.764 58.8516H128.947L140.495 22.8599H151.31L134.355 69.7308H122.623L105.393 22.8599Z"
            fill="black"/>
        <path
            d="M186.042 42.1703C185.92 40.5385 185.553 38.967 184.942 37.456C184.392 35.9451 183.598 34.6456 182.559 33.5577C181.581 32.4093 180.359 31.5027 178.893 30.8379C177.488 30.1126 175.899 29.75 174.127 29.75C172.294 29.75 170.614 30.0824 169.086 30.7473C167.62 31.3517 166.337 32.228 165.237 33.3764C164.198 34.4643 163.343 35.7637 162.671 37.2747C162.06 38.7857 161.723 40.4176 161.662 42.1703H186.042ZM161.662 48.9698C161.662 50.783 161.907 52.5357 162.396 54.228C162.945 55.9203 163.74 57.4011 164.779 58.6703C165.817 59.9396 167.131 60.967 168.72 61.7527C170.308 62.478 172.202 62.8407 174.402 62.8407C177.457 62.8407 179.901 62.206 181.734 60.9368C183.628 59.6071 185.034 57.6429 185.95 55.044H195.849C195.299 57.5824 194.352 59.8489 193.007 61.8434C191.663 63.8379 190.044 65.5302 188.15 66.9203C186.256 68.25 184.117 69.2472 181.734 69.9121C179.412 70.6374 176.968 71 174.402 71C170.675 71 167.375 70.3956 164.504 69.1868C161.632 67.978 159.188 66.2857 157.171 64.1099C155.216 61.9341 153.719 59.3352 152.68 56.3132C151.703 53.2912 151.214 49.967 151.214 46.3407C151.214 43.0165 151.733 39.8736 152.772 36.9121C153.872 33.8901 155.399 31.261 157.355 29.0247C159.371 26.728 161.785 24.9148 164.595 23.5852C167.406 22.2555 170.583 21.5907 174.127 21.5907C177.854 21.5907 181.184 22.3764 184.117 23.9478C187.111 25.4588 189.586 27.4835 191.541 30.022C193.496 32.5604 194.901 35.4918 195.757 38.8159C196.673 42.0797 196.918 45.4643 196.49 48.9698H161.662Z"
            fill="black"/>
        <path
            d="M213.983 45.0714L197.577 22.8599H210.225L220.124 37.2747L230.48 22.8599H242.578L226.448 44.5275L244.595 69.7308H232.038L220.032 52.4148L208.392 69.7308H196.111L213.983 45.0714Z"
            fill="black"/>
        <path
            d="M248.454 5L258.902 5V14.7912H248.454V5ZM248.454 22.8599L258.902 22.8599V69.7308H248.454V22.8599Z"
            fill="black"/>
        <path
            d="M263.229 22.8599H271.112V8.80769L281.56 8.80769V22.8599L291 22.8599V30.5659L281.56 30.5659V55.5879C281.56 56.6758 281.59 57.6126 281.651 58.3983C281.774 59.1841 281.988 59.8489 282.293 60.3929C282.66 60.9368 283.179 61.3599 283.851 61.6621C284.523 61.9038 285.44 62.0247 286.601 62.0247C287.334 62.0247 288.067 62.0247 288.8 62.0247C289.534 61.9643 290.267 61.8434 291 61.6621V69.6401C289.839 69.761 288.709 69.8819 287.609 70.0027C286.509 70.1236 285.379 70.1841 284.218 70.1841C281.468 70.1841 279.238 69.9423 277.527 69.4588C275.877 68.9148 274.564 68.1593 273.586 67.1923C272.67 66.1648 272.028 64.8956 271.661 63.3846C271.356 61.8736 271.173 60.1511 271.112 58.217V30.5659H263.229V22.8599Z"
            fill="black"/>
    </g>
    <defs>
        <filter id="filter0_d" x="0" y="0" width="299" height="82"
                filterUnits="userSpaceOnUse" color-interpolation-filters="sRGB">
            <feFlood flood-opacity="0" result="BackgroundImageFix"/>
            <feColorMatrix in="SourceAlpha" type="matrix"
                           values="0 0 0 0 0 0 0 0 0 0 0 0 0 0 0 0 0 0 127 0"/>
            <feOffset dy="3"/>
            <feGaussianBlur stdDeviation="4"/>
            <feColorMatrix type="matrix"
                           values="0 0 0 0 0 0 0 0 0 0 0 0 0 0 0 0 0 0 0.09 0"/>
            <feBlend mode="normal" in2="BackgroundImageFix"
                     result="effect1_dropShadow"/>
            <feBlend mode="normal" in="SourceGraphic" in2="effect1_dropShadow"
                     result="shape"/>
        </filter>
    </defs>
</svg>
