<svg width="34" height="34" viewBox="0 0 34 34" fill="none" xmlns="http://www.w3.org/2000/svg">
<path d="M15.5835 5.66666H5.66683C4.91538 5.66666 4.19471 5.96517 3.66336 6.49652C3.13201 7.02787 2.8335 7.74854 2.8335 8.49999V28.3333C2.8335 29.0848 3.13201 29.8054 3.66336 30.3368C4.19471 30.8681 4.91538 31.1667 5.66683 31.1667H25.5002C26.2516 31.1667 26.9723 30.8681 27.5036 30.3368C28.035 29.8054 28.3335 29.0848 28.3335 28.3333V18.4167" stroke="#FF7F48" stroke-width="2" stroke-linecap="round" stroke-linejoin="round"/>
<path d="M26.2085 3.54176C26.7721 2.97818 27.5365 2.66156 28.3335 2.66156C29.1305 2.66156 29.8949 2.97818 30.4585 3.54176C31.0221 4.10535 31.3387 4.86973 31.3387 5.66676C31.3387 6.46379 31.0221 7.22818 30.4585 7.79176L17.0002 21.2501L11.3335 22.6668L12.7502 17.0001L26.2085 3.54176Z" stroke="#FF7F48" stroke-width="2" stroke-linecap="round" stroke-linejoin="round"/>
</svg>
