<svg width="25" height="25" viewBox="0 0 25 25" fill="none" xmlns="http://www.w3.org/2000/svg">
<path d="M18.75 8.33337C20.4759 8.33337 21.875 6.93426 21.875 5.20837C21.875 3.48248 20.4759 2.08337 18.75 2.08337C17.0241 2.08337 15.625 3.48248 15.625 5.20837C15.625 6.93426 17.0241 8.33337 18.75 8.33337Z" stroke="#FF7F48" stroke-width="2" stroke-linecap="round" stroke-linejoin="round"/>
<path d="M6.25 15.625C7.97589 15.625 9.375 14.2259 9.375 12.5C9.375 10.7741 7.97589 9.375 6.25 9.375C4.52411 9.375 3.125 10.7741 3.125 12.5C3.125 14.2259 4.52411 15.625 6.25 15.625Z" stroke="#FF7F48" stroke-width="2" stroke-linecap="round" stroke-linejoin="round"/>
<path d="M18.75 22.9166C20.4759 22.9166 21.875 21.5175 21.875 19.7916C21.875 18.0657 20.4759 16.6666 18.75 16.6666C17.0241 16.6666 15.625 18.0657 15.625 19.7916C15.625 21.5175 17.0241 22.9166 18.75 22.9166Z" stroke="#FF7F48" stroke-width="2" stroke-linecap="round" stroke-linejoin="round"/>
<path d="M8.94824 14.0729L16.0628 18.2187" stroke="#FF7F48" stroke-width="2" stroke-linecap="round" stroke-linejoin="round"/>
<path d="M16.0524 6.78125L8.94824 10.9271" stroke="#FF7F48" stroke-width="2" stroke-linecap="round" stroke-linejoin="round"/>
</svg>
