<?xml version="1.0" standalone="no"?>
<!DOCTYPE svg PUBLIC "-//W3C//DTD SVG 20010904//EN"
 "http://www.w3.org/TR/2001/REC-SVG-20010904/DTD/svg10.dtd">
<svg version="1.0" xmlns="http://www.w3.org/2000/svg"
 width="700.000000pt" height="700.000000pt" viewBox="0 0 700.000000 700.000000"
 preserveAspectRatio="xMidYMid meet">
<metadata>
Created by potrace 1.11, written by Peter Selinger 2001-2013
</metadata>
<g transform="translate(0.000000,700.000000) scale(0.100000,-0.100000)"
fill="#000000" stroke="none">
<path d="M2465 6988 c-366 -34 -752 -169 -1059 -371 -153 -101 -242 -175 -376
-313 -333 -343 -528 -748 -580 -1209 -8 -70 -10 -405 -7 -1125 4 -1125 1
-1062 67 -1301 199 -722 791 -1282 1568 -1485 124 -32 263 -53 439 -67 l145
-12 283 -455 c155 -250 303 -479 329 -507 58 -64 163 -119 259 -136 139 -23
312 30 404 125 23 24 172 252 331 508 l289 465 154 12 c212 17 402 54 580 113
817 269 1391 950 1478 1752 15 132 15 1974 0 2106 -40 370 -181 722 -413 1027
-74 98 -235 265 -338 351 -258 216 -634 400 -968 474 -248 55 -211 54 -1390
56 -613 1 -1139 -2 -1195 -8z m1415 -1709 c173 -27 353 -89 482 -165 113 -67
267 -221 327 -327 66 -118 101 -226 125 -384 l6 -43 -288 0 -288 0 -12 58
c-38 183 -161 320 -351 390 -98 36 -273 42 -396 13 -136 -32 -207 -71 -301
-165 -69 -69 -89 -97 -132 -186 -84 -173 -112 -313 -112 -560 0 -380 116 -656
338 -804 96 -64 174 -87 308 -94 198 -9 334 38 454 157 101 100 178 251 197
386 l6 45 288 0 289 0 -7 -32 c-19 -106 -66 -265 -101 -346 -204 -473 -620
-702 -1199 -661 -212 14 -366 56 -520 141 -306 169 -505 444 -587 810 -81 362
-41 784 103 1102 68 150 214 334 345 436 171 131 390 214 634 240 98 10 294 5
392 -11z"/>
</g>
</svg>
